<?xml version="1.0" encoding="UTF-8" standalone="no"?>
<!-- Created with Inkscape (http://www.inkscape.org/) -->

<svg
   version="1.1"
   id="svg2"
   width="610"
   height="210"
   viewBox="0 0 610 210"
   sodipodi:docname="Kevin-name.svg"
   inkscape:version="1.2.1 (9c6d41e410, 2022-07-14)"
   xmlns:inkscape="http://www.inkscape.org/namespaces/inkscape"
   xmlns:sodipodi="http://sodipodi.sourceforge.net/DTD/sodipodi-0.dtd"
   xmlns="http://www.w3.org/2000/svg"
   xmlns:svg="http://www.w3.org/2000/svg">
  <defs
     id="defs6" />
  <sodipodi:namedview
     id="namedview4"
     pagecolor="#ffffff"
     bordercolor="#000000"
     borderopacity="0.25"
     inkscape:showpageshadow="2"
     inkscape:pageopacity="0"
     inkscape:pagecheckerboard="0"
     inkscape:deskcolor="#d1d1d1"
     showgrid="false"
     inkscape:zoom="2"
     inkscape:cx="341.5"
     inkscape:cy="107.25"
     inkscape:window-width="1920"
     inkscape:window-height="1051"
     inkscape:window-x="-9"
     inkscape:window-y="-9"
     inkscape:window-maximized="1"
     inkscape:current-layer="g8"
     inkscape:lockguides="false" />
  <g
     inkscape:groupmode="layer"
     inkscape:label="Image"
     id="g8">
    <path
       style="fill:#00e676;fill-opacity:1;stroke-width:0.649158"
       d="M 5.4432032,203.49034 C 4.6612691,201.86248 4.6555269,201.37832 5.3897752,198.98123 8.0755063,190.21319 16.082176,177.51592 35.797205,150.75991 53.795175,126.33422 53.880951,126.18832 63.671314,103.33988 78.994196,67.5799 84.980541,44.879705 82.413294,32.270227 82.095914,30.711402 81.363388,29.09081 80.785462,28.66891 77.699498,26.416071 70.59251,29.147567 59.079493,37.011359 c -5.485424,3.746743 -9.533981,6.053879 -10.623346,6.053879 -1.75677,0 -1.758095,-0.0023 -0.701312,-1.614668 3.23766,-4.937329 18.830806,-15.075448 27.376384,-17.799156 6.778671,-2.160555 10.599959,1.52535 11.734946,11.319208 1.494457,12.895577 -6.601691,41.715351 -20.438762,72.755868 -1.24977,2.80362 -1.762826,4.64936 -1.421679,5.11473 0.341149,0.46532 4.435834,-3.54986 11.346596,-11.12633 22.813907,-25.011503 46.76601,-48.411872 63.84379,-62.373204 11.74297,-9.600023 26.55871,-20.399762 30.22851,-22.034659 4.41955,-1.968912 6.67452,-1.64151 6.40241,0.929561 -0.20234,1.91179 -1.05335,2.565366 -8.2344,6.324131 -2.90416,1.520112 -7.77483,4.661597 -10.82372,6.981087 -20.83352,15.849443 -66.953425,59.338513 -68.880527,64.951322 -1.948452,5.675082 -2.513296,36.125062 -0.850905,45.871502 1.204357,7.061 3.828817,13.02922 8.521998,19.37976 5.134954,6.94831 9.073084,9.996 17.122404,13.25094 5.16497,2.08855 5.16497,2.08855 2.94169,2.93137 -3.47624,1.3178 -7.28721,1.0185 -10.45752,-0.82122 -11.963649,-6.94248 -20.017791,-19.46199 -22.40194,-34.82204 -0.96436,-6.21285 -1.122724,-24.14573 -0.303791,-34.39453 0.266582,-3.33596 0.402966,-6.19847 0.303097,-6.36116 -0.332293,-0.5413 -5.925009,5.61917 -17.997255,19.82431 -11.346806,13.3515 -12.174615,14.51038 -16.39666,22.95489 -5.995852,11.99223 -15.623624,29.56947 -20.072141,36.64532 -4.802308,7.63852 -16.142763,22.01322 -18.400474,23.32359 -2.6849748,1.55844 -4.4499266,1.30421 -5.4537054,-0.78552 z M 19.606509,186.54922 c 5.584809,-7.59445 12.810533,-19.77092 12.810533,-21.58775 0,-1.5889 -10.409432,12.68212 -15.0551,20.64004 -6.884302,11.79277 -6.003992,12.16445 2.244567,0.94771 z M 450.6849,198.30088 c 0.74208,-4.80557 11.77058,-30.22077 27.90232,-64.30071 6.40309,-13.52719 11.96321,-25.41677 12.35584,-26.42128 0.71395,-1.82637 0.71395,-1.82637 -11.0987,-1.295 -7.77745,0.34984 -12.40459,0.87576 -13.54546,1.53959 -0.95301,0.55452 -4.48407,4.39171 -7.84677,8.52706 -21.9783,27.02825 -30.96727,36.82122 -32.19987,35.07978 -0.71763,-1.01382 2.06698,-4.65245 19.97185,-26.0972 12.55973,-15.04283 14.5493,-17.59761 14.11362,-18.12304 -0.32891,-0.39675 -51.674,3.0543 -66.9164,4.49764 -7.33681,0.69474 -14.4361,1.05823 -15.77618,0.80776 -1.86728,-0.34901 -3.55535,0.064 -7.22565,1.76747 -5.95648,2.7647 -11.86784,4.42951 -18.0177,5.07432 -5.53862,0.58075 -9.23015,-0.42677 -11.96099,-3.26445 -1.84527,-1.91736 -1.84527,-1.91736 -9.17102,7.8605 -11.97162,15.97867 -22.30906,26.95782 -26.35764,27.99387 -2.35396,0.60237 -4.40989,-0.60965 -5.23761,-3.08768 -1.07403,-3.2154 0.75498,-10.68484 6.74725,-27.55479 5.12276,-14.42206 6.07383,-17.58574 5.28667,-17.58574 -0.1569,0 -3.37969,3.23468 -7.16161,7.18815 -9.26508,9.68554 -11.37211,10.66774 -13.80143,6.43353 l -1.31957,-2.29994 -4.38717,2.72718 c -6.86862,4.26966 -16.00932,9.29223 -17.23238,9.46865 -4.19543,0.60521 -6.39192,-1.32385 -6.39192,-5.61365 0,-1.4117 0.90573,-5.83432 2.01275,-9.82804 1.107,-3.99375 1.86522,-7.7858 1.68489,-8.42678 -0.47922,-1.70356 -3.86327,-1.4678 -6.63698,0.46241 -4.34517,3.02378 -11.84003,9.63876 -16.90587,14.92117 -5.67439,5.91698 -6.16697,6.2643 -7.52887,5.30881 -1.18653,-0.83241 -1.25235,-2.86755 -0.15669,-4.84361 1.66852,-3.00913 0.77875,-3.11899 -4.27776,-0.52823 -4.07733,2.08908 -5.68319,2.55536 -7.83094,2.27387 -3.62533,-0.47519 -5.57545,-3.05305 -5.65684,-7.47783 -0.0582,-3.17242 -0.0582,-3.17242 -3.7702,-3.24685 -3.24172,-0.0649 -3.8996,-0.33053 -5.19402,-2.09668 -1.18182,-1.6125 -1.55031,-2.99434 -1.81865,-6.81991 l -0.33649,-4.79766 -4.1963,5.30359 c -6.85645,8.66565 -17.63508,20.72936 -19.97781,22.35964 -4.49421,3.12752 -7.50074,1.17494 -7.30094,-4.74149 0.0598,-1.76909 0.16281,-3.89886 0.2289,-4.73286 0.0812,-1.02227 -0.15124,-1.41658 -0.71344,-1.2102 -0.45853,0.16845 -2.83466,1.12402 -5.28025,2.12372 -4.99376,2.04128 -13.6439,4.00341 -17.67904,4.01015 -3.66445,0.007 -7.10584,-1.28487 -9.04374,-3.39267 -1.39457,-1.51679 -1.62343,-2.28522 -1.62001,-5.43952 0.004,-5.34736 1.99289,-10.40877 5.044,-12.847784 5.00232,-3.998822 13.5762,-5.502839 15.43116,-2.7069 1.25262,1.88803 1.15551,4.357474 -0.2466,6.270004 -1.97337,2.69183 -7.15149,5.33256 -11.67654,5.95481 -2.3342,0.32097 -4.52637,0.82165 -4.87149,1.11262 -0.99561,0.83932 -0.7315,3.10906 0.54475,4.68148 1.74173,2.14594 14.02528,1.98338 19.94886,-0.26398 7.93052,-3.00884 12.03279,-6.25036 13.20477,-10.43417 3.22044,-11.4965 5.66202,-17.80532 6.89086,-17.80532 0.99551,0 0.39879,5.97195 -1.14219,11.430709 -1.80969,6.410661 -4.71347,18.182711 -5.27298,21.376861 -0.4395,2.50913 0.61549,3.399 2.44571,2.0629 2.17783,-1.58987 18.46393,-21.611792 25.83012,-31.755186 7.45285,-10.262755 8.68222,-11.265766 10.48243,-8.552325 1.57457,2.373333 1.04996,4.222667 -2.63227,9.27862 -4.20947,5.779972 -5.55719,10.13378 -4.17652,13.492151 0.70789,1.72185 1.32111,2.07653 4.41434,2.55326 4.22326,0.65088 3.94767,0.96519 7.46553,-8.514417 3.24937,-8.756065 4.16872,-10.216852 6.02921,-9.579875 2.83662,0.971116 2.53676,3.478958 -1.44008,12.044025 -4.73832,10.205047 -5.51658,12.400207 -5.51658,15.559777 0,3.28291 0.85549,4.11567 3.81821,3.71685 5.91022,-0.79558 15.14721,-9.51447 19.43607,-18.34595 1.41302,-2.909653 3.19061,-6.202749 3.95019,-7.318053 1.41432,-2.076557 2.92092,-2.118528 2.92092,-0.08124 0,1.673936 -5.04593,12.738793 -8.34171,18.291993 -1.57017,2.64562 -2.72177,4.99176 -2.55911,5.21366 0.16261,0.22192 1.49381,-0.95601 2.95812,-2.61754 7.84928,-8.90636 17.63626,-16.125365 21.86157,-16.125365 3.1308,0 4.38413,1.560135 4.82079,6.000945 0.24942,2.53665 -0.0713,4.13281 -1.8009,8.96735 -1.15741,3.23477 -2.12804,7.07556 -2.15699,8.53502 -0.048,2.41606 0.0976,2.67372 1.62569,2.87817 2.24453,0.30029 24.37422,-14.62935 27.67048,-18.66772 4.03656,-4.94532 8.78545,-8.123038 13.8919,-9.295765 1.46624,-0.33674 3.55793,-1.364308 4.64831,-2.283488 2.60011,-2.192033 9.31085,-13.754715 16.34122,-28.156344 6.88288,-14.099411 7.04445,-14.356882 8.83096,-14.072976 2.26858,0.36051 2.01056,2.786141 -0.95562,8.985665 -16.27964,34.025559 -31.24623,70.817888 -33.24147,81.717418 -0.48367,2.64235 -0.73124,5.00645 -0.55009,5.25356 0.98541,1.3441 7.02962,-4.55193 18.37955,-17.92886 13.14721,-15.49524 16.93758,-20.61128 18.40495,-24.84235 1.05875,-3.0529 2.01554,-4.54474 3.86052,-6.019615 5.01451,-4.008565 13.58667,-5.516736 15.44405,-2.717197 1.25265,1.888029 1.1555,4.357472 -0.24661,6.270012 -1.97339,2.69182 -7.15144,5.33256 -11.67655,5.9548 -2.33415,0.32096 -4.52635,0.82164 -4.87145,1.11262 -0.99564,0.83932 -0.73152,3.10906 0.54475,4.68149 1.03377,1.2737 2.03496,1.43683 8.47622,1.38094 7.75361,-0.0673 13.38021,-1.56529 18.09949,-4.81875 7.46056,-5.14334 6.66543,-4.81175 8.21555,-3.42631 1.26948,1.13463 2.24032,1.1781 9.54313,0.42709 4.47138,-0.45985 12.25681,-1.18481 17.30085,-1.61108 5.04405,-0.42624 14.67361,-1.28646 21.39902,-1.91162 6.72541,-0.62513 18.2805,-1.4201 25.67794,-1.76656 11.57705,-0.54223 13.6653,-0.82245 14.99654,-2.01222 2.48456,-2.22065 55.70351,-68.513423 65.89827,-82.086977 8.0348,-10.697696 9.51378,-12.3553411 10.83847,-12.1475568 1.2085,0.1895598 1.57145,0.6851972 1.71058,2.3360127 0.13273,1.5741751 -0.73873,3.8987981 -3.50349,9.3456231 -9.02344,17.777232 -37.96169,75.303665 -39.35224,78.22847 -1.79053,3.766103 -2.06738,3.518709 5.18789,4.636578 2.91878,0.44973 6.28628,1.28022 7.48338,1.84555 l 2.17647,1.02787 -2.20304,0.46828 c -1.21168,0.25758 -5.53818,0.87848 -9.61444,1.3798 -5.24058,0.64447 -7.70298,1.26502 -8.40686,2.11852 -0.54748,0.6639 -9.19643,18.9483 -19.21993,40.63202 -21.28865,46.0536 -23.06675,49.73547 -25.04324,51.85622 -2.0736,2.22492 -2.60097,2.01232 -2.15605,-0.86918 z M 299.60659,109.86532 c 5.44489,-4.80042 6.73405,-8.9444 1.67633,-5.38863 -2.51954,1.77133 -5.17405,4.85832 -6.031,7.01354 -0.87138,2.19159 0.68416,1.61115 4.35467,-1.62491 z M 152.23143,103.6107 c 2.80169,-1.40491 5.24483,-3.84043 5.24483,-5.22846 0,-0.40076 -0.8612,-0.728635 -1.91381,-0.728635 -2.07946,0 -10.91615,5.778995 -11.29407,7.386055 -0.29871,1.27033 4.18449,0.46581 7.96305,-1.42896 z m 199.53895,0 c 2.80168,-1.40491 5.24482,-3.84043 5.24482,-5.22846 0,-0.40076 -0.86119,-0.728635 -1.91379,-0.728635 -2.07949,0 -10.91617,5.778995 -11.29407,7.386055 -0.29877,1.27033 4.18448,0.46581 7.96304,-1.42896 z m 143.25851,-5.411481 c 0.83006,-0.742432 5.97461,-10.465958 11.43229,-21.607894 5.45772,-11.141954 12.58323,-25.522283 15.83462,-31.956293 8.44367,-16.708956 8.22584,-16.84409 -3.53735,-2.194268 -36.25111,45.147023 -45.0213,56.228232 -45.0213,56.884666 0,0.47629 3.6097,0.65394 9.89123,0.48678 8.33212,-0.22169 10.12919,-0.47595 11.40051,-1.612991 z m 69.87663,27.526011 c -1.50775,-2.05671 -1.87881,-4.61327 -1.17283,-8.0813 0.94578,-4.64636 0.83685,-5.08028 -1.1398,-4.54099 -0.95851,0.26148 -2.72074,0.11635 -3.91607,-0.32285 -2.50603,-0.92047 -3.87572,-3.46492 -5.19997,-9.65988 -1.5937,-7.455352 -5.38346,-6.886421 -12.51836,1.8792 -4.65283,5.71624 -7.07736,9.49156 -9.73524,15.15913 -1.93298,4.12181 -3.67319,5.94745 -5.00465,5.25052 -1.56513,-0.81927 -0.70071,-4.00594 4.84302,-17.85377 8.07244,-20.164459 9.33525,-22.911451 10.40466,-22.633625 1.58418,0.411596 1.30822,3.079892 -1.03366,9.994247 -1.2487,3.686871 -2.19208,7.023798 -2.09643,7.415378 0.0956,0.39155 2.24755,-1.51654 4.78198,-4.240247 6.7801,-7.286616 10.64903,-8.292273 12.85614,-3.341748 0.57921,1.299196 1.21756,3.993095 1.41856,5.986385 0.5866,5.81825 1.17101,6.42895 5.92542,6.19219 3.52161,-0.17534 4.18105,-0.43252 4.86096,-1.89543 1.38578,-2.98162 9.53959,-13.41513 12.05616,-15.426833 3.3447,-2.673756 7.19495,-2.772919 8.70863,-0.224438 1.35475,2.281212 1.07115,7.889783 -0.6705,13.260621 -0.63956,1.97223 -1.03452,3.76087 -0.87774,3.97477 0.15691,0.21389 3.09874,-0.18405 6.53759,-0.88414 7.99841,-1.62857 10.35057,-1.6304 10.80683,-0.009 0.60593,2.15389 -1.11489,2.94778 -11.26044,5.19485 l -9.83754,2.17887 -4.58784,5.79775 c -2.52325,3.18878 -5.46686,6.3668 -6.5413,7.06228 -2.71234,1.75563 -6.22879,1.64814 -7.60758,-0.23265 z m 9.39467,-5.67727 c 1.6522,-1.16541 4.0485,-5.59981 3.58223,-6.62895 -0.14997,-0.33108 -1.01971,-0.60197 -1.9327,-0.60197 -1.65513,0 -4.38847,-2.83976 -4.38847,-4.55931 0,-1.47761 -1.09496,0.0262 -2.23124,3.06421 -2.63203,7.03743 0.23308,12.06752 4.97018,8.72602 z m 7.87648,-14.12929 c 2.42327,-3.30553 4.88361,-13.572262 3.25242,-13.572262 -2.06575,0 -7.20151,5.517181 -8.65189,9.294422 -1.76772,4.60405 2.61481,8.07626 5.39947,4.27784 z M 230.84433,78.661664 c 0,-2.873858 1.26786,-6.318109 2.89961,-7.877116 1.79164,-1.711799 4.15753,-1.513112 4.91307,0.412604 0.55482,1.414079 0.27342,2.061937 -2.46983,5.686296 -3.59136,4.744899 -5.34285,5.32783 -5.34285,1.778216 z"
       id="path170" />
  </g>
</svg>
